<svg width="24" height="24" viewBox="0 0 24 24" fill="none" xmlns="http://www.w3.org/2000/svg">
<g clip-path="url(#clip0_538_5035)">
<path d="M9.30098 13.0246C9.37918 11.707 10.0609 10.5427 11.0937 9.71999C12.1044 8.91126 13.4618 8.41626 14.9521 8.41626C16.4349 8.41626 17.7924 8.91056 18.8031 9.71999C19.8359 10.5427 20.5147 11.707 20.5958 13.0246C20.674 14.3772 20.0978 15.6391 19.0908 16.5733C18.058 17.5215 16.5972 18.121 14.9521 18.121C13.3069 18.121 11.8388 17.5257 10.8134 16.5733C9.80265 15.6391 9.22721 14.3842 9.30836 13.0316L9.30098 13.0246Z" fill="white"/>
<path d="M12.3922 12.8631C12.4324 12.1859 12.7827 11.5876 13.3134 11.1648C13.8328 10.7492 14.5304 10.4949 15.2962 10.4949C16.0583 10.4949 16.7558 10.7489 17.2752 11.1648C17.806 11.5876 18.1548 12.1859 18.1965 12.8631C18.2367 13.5581 17.9406 14.2066 17.4231 14.6867C16.8923 15.1739 16.1417 15.4821 15.2962 15.4821C14.4508 15.4821 13.6964 15.1761 13.1694 14.6867C12.65 14.2066 12.3543 13.5617 12.396 12.8667L12.3922 12.8631Z" fill="#265787"/>
<path d="M7.84269 14.2963C7.84762 14.5614 7.93709 15.0773 8.07129 15.4786C8.35336 16.3313 8.83332 17.1195 9.49678 17.8109C10.1792 18.5239 11.0208 19.0971 11.9914 19.5056C13.0112 19.9319 14.1182 20.1505 15.2669 20.1505C16.4157 20.149 17.5227 19.9269 18.5425 19.4948C19.513 19.0828 20.3547 18.5096 21.0371 17.793C21.7044 17.0944 22.182 16.3062 22.4626 15.4535C22.6047 15.0236 22.6946 14.5865 22.7306 14.1494C22.7659 13.7194 22.7511 13.2859 22.6863 12.8524C22.5596 12.0105 22.2503 11.2187 21.7764 10.5021C21.3442 9.83931 20.7831 9.26249 20.1158 8.77523L20.1174 8.77416L13.407 3.90162C13.4009 3.89732 13.396 3.89266 13.3895 3.88872C12.9498 3.56914 12.2067 3.57021 11.7252 3.89051C11.2362 4.21439 11.1793 4.75037 11.6153 5.08715L11.6134 5.08894L14.4151 7.24218L5.88493 7.25077H5.87355C5.16839 7.25149 4.48977 7.68787 4.35708 8.2432C4.21909 8.80569 4.69829 9.27502 5.43378 9.27502L5.43264 9.27754L9.75457 9.26965L2.02059 14.8587C2.01073 14.8656 2.00011 14.8727 1.99102 14.8795C1.26311 15.4062 1.02806 16.284 1.48679 16.8357C1.9531 17.3982 2.9426 17.4018 3.67809 16.8389L7.88629 13.5786C7.88629 13.5786 7.82487 14.0193 7.8298 14.2808L7.84269 14.2963ZM18.6854 15.7688C17.8173 16.6035 16.6003 17.08 15.2885 17.08C13.973 17.0822 12.756 16.6143 11.8879 15.7795C11.4633 15.3711 11.1524 14.9053 10.959 14.4073C10.7706 13.9165 10.6974 13.397 10.746 12.8739C10.7918 12.3616 10.9533 11.8707 11.2123 11.4301C11.4655 10.9965 11.8151 10.6024 12.2435 10.2692C13.0889 9.62077 14.1618 9.26607 15.284 9.26607C16.41 9.26464 17.4829 9.61324 18.3283 10.2621C18.7567 10.5931 19.1055 10.9858 19.3595 11.4193C19.6184 11.86 19.7803 12.3472 19.8258 12.8632C19.8736 13.3862 19.8004 13.9057 19.612 14.3966C19.4194 14.8982 19.1078 15.3639 18.6832 15.7723L18.6854 15.7688Z" fill="#EA7600"/>
</g>
<defs>
<clipPath id="clip0_538_5035">
<rect width="22" height="17" fill="white" transform="translate(1 3.5)"/>
</clipPath>
</defs>
</svg>
