<svg width="24" height="24" viewBox="0 0 24 24" fill="none" xmlns="http://www.w3.org/2000/svg">
<path d="M5.44235 1.84619H18.5577C20.5462 1.84619 22.1539 3.49511 22.1539 5.53455V18.4655C22.1539 20.505 20.5462 22.1539 18.5577 22.1539H5.44235C3.45388 22.1539 1.84619 20.505 1.84619 18.4655V5.53455C1.84619 3.49511 3.45388 1.84619 5.44235 1.84619Z" fill="#330000"/>
<path d="M11.6866 14.0309H8.53895L7.89588 16.0703C7.87895 16.1484 7.81126 16.2005 7.73511 16.1918H6.14434C6.05126 16.1918 6.02588 16.1397 6.05126 16.0356L8.77588 7.99063C8.80126 7.90385 8.82665 7.80839 8.86049 7.70424C8.89434 7.522 8.91126 7.33107 8.91126 7.14014C8.9028 7.09675 8.93665 7.05336 8.97895 7.04468C8.98742 7.04468 8.99588 7.04468 9.00434 7.04468H11.1705C11.2382 7.04468 11.272 7.07071 11.2805 7.11411L14.369 16.053C14.3943 16.1484 14.369 16.1918 14.2843 16.1918H12.5159C12.4566 16.2005 12.3974 16.1571 12.3805 16.0964L11.6866 14.0309ZM9.02972 12.2691H11.179C11.1282 12.0869 11.0605 11.8699 10.9843 11.6443C10.9082 11.41 10.832 11.1583 10.7559 10.8979C10.6713 10.6289 10.5951 10.3685 10.5105 10.0995C10.4259 9.83048 10.3497 9.5788 10.282 9.32712C10.2143 9.08413 10.1551 8.85848 10.0959 8.6502H10.079C10.0028 9.02338 9.90972 9.39655 9.79126 9.76973C9.66434 10.1863 9.53742 10.6202 9.40203 11.0541C9.28357 11.4967 9.15665 11.9046 9.02972 12.2691Z" fill="#FF9A00"/>
<path d="M16.2134 8.52865C15.9341 8.53732 15.6634 8.4245 15.4603 8.2249C15.2657 8.00794 15.1641 7.72155 15.1726 7.42648C15.1641 7.13141 15.2741 6.85369 15.4772 6.65409C15.6803 6.45448 15.9511 6.35034 16.2303 6.35034C16.5603 6.35034 16.8141 6.45448 17.0003 6.65409C17.1865 6.86237 17.288 7.14009 17.2795 7.42648C17.288 7.72155 17.1865 8.00794 16.9834 8.2249C16.7888 8.43318 16.5011 8.546 16.2134 8.52865ZM15.2657 16.0616V9.37914C15.2657 9.29235 15.2995 9.25764 15.3757 9.25764H17.0511C17.1272 9.25764 17.1611 9.30103 17.1611 9.37914V16.0616C17.1611 16.157 17.1272 16.2004 17.0511 16.2004H15.3926C15.308 16.2004 15.2657 16.1484 15.2657 16.0616Z" fill="#FF9A00"/>
</svg>
