<svg width="24" height="24" viewBox="0 0 24 24" fill="none" xmlns="http://www.w3.org/2000/svg">
<path d="M5.44235 1.84619H18.5577C20.5462 1.84619 22.1539 3.49511 22.1539 5.53455V18.4655C22.1539 20.505 20.5462 22.1539 18.5577 22.1539H5.44235C3.45388 22.1539 1.84619 20.505 1.84619 18.4655V5.53455C1.84619 3.49511 3.45388 1.84619 5.44235 1.84619Z" fill="#001E36"/>
<path d="M6.41528 16.0875V7.1573C6.41528 7.09655 6.44067 7.06184 6.4999 7.06184C6.64374 7.06184 6.77913 7.06184 6.97374 7.05316C7.17682 7.04448 7.38836 7.04448 7.61682 7.0358C7.84528 7.02712 8.09067 7.02712 8.35298 7.01844C8.61528 7.00977 8.86913 7.00977 9.12298 7.00977C9.81682 7.00977 10.3922 7.09655 10.8661 7.2788C11.2891 7.42633 11.6784 7.66933 11.9999 7.99044C12.2707 8.26815 12.4822 8.60661 12.6176 8.97978C12.7445 9.34428 12.8122 9.71746 12.8122 10.108C12.8122 10.8543 12.643 11.4705 12.3045 11.9565C11.9661 12.4425 11.4922 12.807 10.9422 13.0153C10.3668 13.2323 9.73221 13.3104 9.03836 13.3104C8.83528 13.3104 8.6999 13.3104 8.61528 13.3017C8.53067 13.293 8.41221 13.293 8.25144 13.293V16.0788C8.2599 16.1395 8.21759 16.1916 8.15836 16.2003C8.1499 16.2003 8.14144 16.2003 8.12451 16.2003H6.51682C6.44913 16.2003 6.41528 16.1656 6.41528 16.0875ZM8.2599 8.73679V11.6528C8.37836 11.6614 8.48836 11.6701 8.5899 11.6701H9.03836C9.36836 11.6701 9.69836 11.618 10.0114 11.5139C10.2822 11.4358 10.5191 11.2709 10.7053 11.0539C10.883 10.837 10.9676 10.5419 10.9676 10.1601C10.9761 9.89103 10.9084 9.62199 10.773 9.38767C10.6291 9.16203 10.4261 8.98846 10.1807 8.893C9.86759 8.76282 9.52913 8.71075 9.18221 8.71943C8.96221 8.71943 8.76759 8.71943 8.60682 8.72811C8.43759 8.71943 8.31913 8.72811 8.2599 8.73679Z" fill="#31A8FF"/>
<path d="M18.0925 11.1235C17.8386 10.9846 17.5679 10.8891 17.2802 10.8284C16.9671 10.759 16.654 10.7156 16.3325 10.7156C16.1633 10.7069 15.9856 10.7329 15.8248 10.7763C15.7148 10.8023 15.6217 10.8631 15.5625 10.9499C15.5202 11.0193 15.4948 11.1061 15.4948 11.1842C15.4948 11.2623 15.5286 11.3404 15.5794 11.4098C15.6556 11.5053 15.7571 11.5834 15.8671 11.6442C16.0617 11.7483 16.2648 11.8438 16.4679 11.9306C16.9248 12.0868 17.3648 12.3037 17.771 12.5641C18.0502 12.7463 18.2786 12.9893 18.4394 13.2844C18.5748 13.5621 18.6425 13.8659 18.634 14.1783C18.6425 14.5862 18.524 14.9941 18.304 15.3325C18.0671 15.6797 17.7371 15.9487 17.3563 16.1049C16.9417 16.2872 16.434 16.3826 15.8248 16.3826C15.4356 16.3826 15.0548 16.3479 14.674 16.2698C14.3779 16.2177 14.0817 16.1223 13.811 15.9921C13.7517 15.9574 13.7094 15.8966 13.7179 15.8272V14.3171C13.7179 14.2911 13.7263 14.2564 13.7517 14.239C13.7771 14.2217 13.8025 14.2304 13.8279 14.2477C14.1579 14.4473 14.5048 14.5862 14.8771 14.673C15.1986 14.7597 15.5371 14.8031 15.8756 14.8031C16.1971 14.8031 16.4256 14.7597 16.5779 14.6816C16.7133 14.6209 16.8063 14.4734 16.8063 14.3171C16.8063 14.1956 16.7386 14.0828 16.6033 13.97C16.4679 13.8572 16.1886 13.727 15.774 13.5621C15.3425 13.4059 14.9448 13.1976 14.5725 12.9373C14.3102 12.7463 14.0902 12.4947 13.9294 12.1996C13.794 11.9219 13.7263 11.6181 13.7348 11.3144C13.7348 10.9412 13.8363 10.5854 14.0225 10.2643C14.234 9.91714 14.5471 9.63943 14.911 9.46586C15.3086 9.25757 15.8079 9.16211 16.4086 9.16211C16.7556 9.16211 17.111 9.18814 17.4579 9.24022C17.7117 9.27493 17.9571 9.34436 18.1856 9.43982C18.2194 9.4485 18.2533 9.48321 18.2702 9.51793C18.2786 9.55264 18.2871 9.58736 18.2871 9.62207V11.0367C18.2871 11.0714 18.2702 11.1061 18.2448 11.1235C18.1686 11.1408 18.1263 11.1408 18.0925 11.1235Z" fill="#31A8FF"/>
</svg>
