<svg width="24" height="24" viewBox="0 0 24 24" fill="none" xmlns="http://www.w3.org/2000/svg">
<path d="M12 21.75C6.62363 21.75 2.25 17.3764 2.25 12C2.25 6.624 6.62363 2.25 12 2.25C17.3764 2.25 21.75 6.624 21.75 12C21.75 17.3764 17.3764 21.75 12 21.75Z" fill="#52B529"/>
<path d="M12.8895 10.7981L14.9805 5.6175C15.0746 5.38462 15.3502 5.29237 15.5711 5.41237C16.8056 6.08287 17.829 7.089 18.5212 8.31037C18.645 8.529 18.558 8.8065 18.327 8.90438L13.185 11.0895C13.0995 10.9792 13.0013 10.881 12.8895 10.7981ZM11.0891 10.8157L8.904 5.67375C8.80575 5.44275 8.52825 5.35538 8.31 5.4795C7.089 6.17175 6.08288 7.19475 5.412 8.42963C5.292 8.6505 5.38425 8.92613 5.61713 9.02025L10.7978 11.1112C10.881 10.9987 10.9792 10.9005 11.0891 10.8157ZM12.1931 10.5195L14.2853 5.33588C14.3786 5.10413 14.2466 4.8465 14.0059 4.779C13.3676 4.59938 12.696 4.5 12 4.5C11.2552 4.5 10.5382 4.614 9.85987 4.81837C9.62175 4.89 9.49687 5.151 9.59437 5.37975L11.7795 10.5221C11.8519 10.5116 12.1294 10.5113 12.1931 10.5195ZM12.9109 13.1842L15.096 18.3263C15.1943 18.5573 15.4718 18.6446 15.69 18.5205C16.911 17.8282 17.9171 16.8053 18.588 15.5704C18.708 15.3495 18.6158 15.0739 18.3829 14.9797L13.2023 12.8888C13.119 13.0012 13.0208 13.0995 12.9109 13.1842ZM19.1816 9.85987C19.11 9.62175 18.849 9.49687 18.6202 9.59437L13.4779 11.7795C13.4884 11.8519 13.5 11.9246 13.5 12C13.5 12.066 13.4888 12.1294 13.4805 12.1931L18.6641 14.2853C18.8959 14.3786 19.1535 14.2466 19.221 14.0059C19.4006 13.3676 19.5 12.696 19.5 12C19.5 11.2552 19.386 10.5382 19.1816 9.85987ZM10.5 12C10.5 11.934 10.5113 11.8706 10.5195 11.8069L5.33588 9.71475C5.10413 9.62138 4.8465 9.75337 4.779 9.99412C4.59938 10.6324 4.5 11.304 4.5 12C4.5 12.7448 4.614 13.4618 4.81837 14.1401C4.89 14.3783 5.151 14.5031 5.37975 14.4056L10.5221 12.2205C10.5116 12.1481 10.5 12.0754 10.5 12ZM12 13.5C11.934 13.5 11.8706 13.4888 11.8069 13.4805L9.71475 18.6641C9.62138 18.8959 9.75337 19.1535 9.99412 19.221C10.6324 19.4006 11.304 19.5 12 19.5C12.7448 19.5 13.4618 19.386 14.1401 19.1816C14.3783 19.11 14.5031 18.849 14.4056 18.6202L12.2205 13.4779C12.1481 13.4884 12.0754 13.5 12 13.5ZM10.8157 12.9109L5.67375 15.096C5.44275 15.1943 5.35538 15.4718 5.4795 15.69C6.17175 16.911 7.19475 17.9171 8.42963 18.588C8.6505 18.708 8.92613 18.6158 9.02025 18.3829L11.1112 13.2023C10.9987 13.119 10.9005 13.0208 10.8157 12.9109Z" fill="white"/>
<path d="M0.542354 13.3995C0.441104 13.6207 0.500729 13.8705 0.679229 13.9728L7.73523 18.0168C8.32098 18.3525 8.92885 18.6465 9.55548 18.897L16.0666 21.5002C16.445 21.6513 16.9017 21.4248 17.1027 20.9868C17.3034 20.5485 17.1766 20.0546 16.8151 19.8667L10.592 16.6353C9.9931 16.3245 9.3736 16.056 8.73685 15.8317L1.06585 13.1287C0.871604 13.0605 0.643604 13.1782 0.542354 13.3995Z" fill="white"/>
<path d="M18.7849 20.2379C18.2921 20.0335 17.847 20.0065 17.4859 20.1108C17.3921 19.8659 17.2253 19.6574 16.9875 19.534L10.764 16.3027C10.152 15.985 9.51189 15.7075 8.86052 15.478L1.19027 12.775C0.810391 12.6408 0.385141 12.8425 0.201016 13.2434C0.0172658 13.6443 0.142516 14.0977 0.492391 14.2983L7.54802 18.3423C8.14577 18.685 8.77389 18.9888 9.41514 19.2453L15.9263 21.8485C16.0511 21.8984 16.1813 21.922 16.3106 21.922C16.4051 21.922 16.4989 21.9067 16.5908 21.8823C16.6939 22.243 16.9391 22.5153 17.2583 22.726C18.3371 23.4389 21.1418 22.9499 21.1418 22.9499C20.3918 21.6415 19.7411 20.6864 18.7849 20.2379ZM16.2053 21.1522L13.0384 19.8858L13.6148 18.6277L16.6421 20.1997C17.235 20.4839 16.8491 21.3723 16.2053 21.1522Z" fill="#985B02"/>
</svg>
