<svg width="26" height="26" viewBox="0 0 26 26" xmlns="http://www.w3.org/2000/svg">
<path fill-rule="evenodd" clip-rule="evenodd" d="M10.7019 10.7019C11.3114 10.0924 12.138 9.75 13 9.75C13.862 9.75 14.6886 10.0924 15.2981 10.7019C15.9076 11.3114 16.25 12.138 16.25 13C16.25 13.862 15.9076 14.6886 15.2981 15.2981C14.6886 15.9076 13.862 16.25 13 16.25C12.138 16.25 11.3114 15.9076 10.7019 15.2981C10.0924 14.6886 9.75 13.862 9.75 13C9.75 12.138 10.0924 11.3114 10.7019 10.7019ZM13 11.9167C12.7127 11.9167 12.4371 12.0308 12.234 12.234C12.0308 12.4371 11.9167 12.7127 11.9167 13C11.9167 13.2873 12.0308 13.5629 12.234 13.766C12.4371 13.9692 12.7127 14.0833 13 14.0833C13.2873 14.0833 13.5629 13.9692 13.766 13.766C13.9692 13.5629 14.0833 13.2873 14.0833 13C14.0833 12.7127 13.9692 12.4371 13.766 12.234C13.5629 12.0308 13.2873 11.9167 13 11.9167Z"/>
<path fill-rule="evenodd" clip-rule="evenodd" d="M1.39202 14.1147C0.98033 13.4285 0.98033 12.5713 1.39202 11.8852C4.25133 7.11965 8.11287 4.33325 12.9999 4.33325C17.887 4.33325 21.7485 7.11965 24.6078 11.8852C25.0195 12.5713 25.0195 13.4285 24.6078 14.1147C21.7485 18.8802 17.887 21.6666 12.9999 21.6666C8.11287 21.6666 4.25133 18.8802 1.39202 14.1147ZM3.24992 12.9999C5.84992 8.66658 9.09992 6.49992 12.9999 6.49992C16.8999 6.49992 20.1499 8.66658 22.7499 12.9999C20.1499 17.3333 16.8999 19.4999 12.9999 19.4999C9.09992 19.4999 5.84992 17.3333 3.24992 12.9999Z"/>
</svg>
