<svg width="26" height="26" viewBox="0 0 26 26" xmlns="http://www.w3.org/2000/svg">
<path fill-rule="evenodd" clip-rule="evenodd" d="M9.11224 5.42866C8.51739 5.36521 7.91585 5.42561 7.34549 5.60605C6.77513 5.7865 6.24831 6.08309 5.79821 6.47714C5.3481 6.87119 4.98446 7.35417 4.73019 7.89566C4.47591 8.43715 4.33651 9.02543 4.32076 9.62344C4.305 10.2215 4.41324 10.8163 4.63866 11.3704C4.86407 11.9245 5.20178 12.426 5.63052 12.8432L5.63736 12.8498L5.63733 12.8499L13 20.1418L20.3627 12.8499C20.3851 12.8276 20.4083 12.8066 20.4321 12.7867C20.8261 12.3826 21.1376 11.9051 21.3488 11.3809C21.5716 10.8278 21.6779 10.2346 21.6609 9.63848C21.644 9.04236 21.5042 8.45617 21.2502 7.91657C20.9963 7.37698 20.6337 6.8956 20.1852 6.50258C19.7367 6.10956 19.2119 5.81334 18.6436 5.63247C18.0753 5.4516 17.4759 5.38998 16.8827 5.45145C16.2895 5.51292 15.7154 5.69617 15.1963 5.98972C14.6772 6.28328 14.2243 6.68082 13.8659 7.15746C13.6606 7.43048 13.3386 7.59069 12.997 7.58974C12.6554 7.58878 12.3343 7.42679 12.1305 7.15263C11.7737 6.6725 11.3213 6.27146 10.8018 5.97475C10.2824 5.67805 9.70709 5.49212 9.11224 5.42866ZM21.8126 14.4633L13.7623 22.4363C13.3401 22.8544 12.6599 22.8544 12.2377 22.4363L4.1159 14.3925C3.4745 13.7674 2.96919 13.0165 2.6317 12.1868C2.29357 11.3556 2.13121 10.4634 2.15484 9.56639C2.17847 8.66937 2.38758 7.78695 2.76899 6.97472C3.1504 6.16248 3.69586 5.43801 4.37102 4.84693C5.04617 4.25586 5.8364 3.81097 6.69194 3.5403C7.54748 3.26963 8.44979 3.17904 9.34206 3.27422C10.2343 3.3694 11.0972 3.6483 11.8764 4.09336C12.2816 4.32481 12.6597 4.59859 13.0044 4.90937C13.3489 4.60235 13.726 4.33207 14.1298 4.10373C14.9084 3.6634 15.7696 3.38853 16.6593 3.29632C17.5491 3.20412 18.4483 3.29656 19.3007 3.56786C20.1531 3.83916 20.9404 4.28348 21.6131 4.87302C22.2859 5.46256 22.8298 6.18462 23.2107 6.99401C23.5916 7.8034 23.8013 8.6827 23.8267 9.57687C23.8522 10.471 23.6928 11.3608 23.3585 12.1906C23.0242 13.0203 22.5223 13.7721 21.8841 14.3989C21.861 14.4217 21.8371 14.4431 21.8126 14.4633Z" />
</svg>
