<svg width="22" height="23" viewBox="0 0 22 23" xmlns="http://www.w3.org/2000/svg">
<path fill-rule="evenodd" clip-rule="evenodd" d="M6.4165 11.5001C5.91024 11.5001 5.49984 11.9105 5.49984 12.4167V17.9167C5.49984 18.423 5.91024 18.8334 6.4165 18.8334H15.5832C16.0894 18.8334 16.4998 18.423 16.4998 17.9167V12.4167C16.4998 11.9105 16.0894 11.5001 15.5832 11.5001H6.4165ZM3.6665 12.4167C3.6665 10.898 4.89772 9.66675 6.4165 9.66675H15.5832C17.102 9.66675 18.3332 10.898 18.3332 12.4167V17.9167C18.3332 19.4355 17.102 20.6667 15.5832 20.6667H6.4165C4.89772 20.6667 3.6665 19.4355 3.6665 17.9167V12.4167Z"/>
<path fill-rule="evenodd" clip-rule="evenodd" d="M10.9998 4.16659C10.2705 4.16659 9.57102 4.45632 9.05529 4.97204C8.53957 5.48777 8.24984 6.18724 8.24984 6.91659V10.5833C8.24984 11.0895 7.83943 11.4999 7.33317 11.4999C6.82691 11.4999 6.4165 11.0895 6.4165 10.5833V6.91659C6.4165 5.70101 6.89939 4.53522 7.75893 3.67568C8.61847 2.81614 9.78426 2.33325 10.9998 2.33325C12.2154 2.33325 13.3812 2.81614 14.2407 3.67568C15.1003 4.53522 15.5832 5.70101 15.5832 6.91659V10.5833C15.5832 11.0895 15.1728 11.4999 14.6665 11.4999C14.1602 11.4999 13.7498 11.0895 13.7498 10.5833V6.91659C13.7498 6.18724 13.4601 5.48777 12.9444 4.97204C12.4287 4.45632 11.7292 4.16659 10.9998 4.16659Z"/>
<ellipse cx="10.9998" cy="15.1666" rx="1.83333" ry="1.83333"/>
</svg>
