<svg width="74" height="44" viewBox="0 0 74 44" fill="none" xmlns="http://www.w3.org/2000/svg">
<g clip-path="url(#clip0_265_1125)">
<path d="M-0.0400391 12.6398H7.18396C9.03196 12.6398 10.572 13.2558 11.804 14.4878C13.0546 15.7198 13.68 17.2505 13.68 19.0798C13.68 20.8905 13.0546 22.4211 11.804 23.6718C10.572 24.9038 9.03196 25.5198 7.18396 25.5198H3.17996V32.2398H-0.0400391V12.6398ZM3.17996 22.4958H7.18396C8.13596 22.4958 8.91996 22.1785 9.53596 21.5438C10.152 20.8905 10.46 20.0691 10.46 19.0798C10.46 18.0905 10.152 17.2785 9.53596 16.6438C8.91996 15.9905 8.13596 15.6638 7.18396 15.6638H3.17996V22.4958Z" fill="white"/>
<path d="M29.0992 26.5278H17.9552C18.1792 27.5731 18.6832 28.3851 19.4672 28.9638C20.2699 29.5425 21.2592 29.8318 22.4352 29.8318C24.0219 29.8318 25.2259 29.2531 26.0472 28.0958L28.5392 29.5518C27.1765 31.5865 25.1325 32.6038 22.4072 32.6038C20.1485 32.6038 18.3099 31.9131 16.8912 30.5318C15.4912 29.1318 14.7912 27.3678 14.7912 25.2398C14.7912 23.1678 15.4819 21.4225 16.8632 20.0038C18.2259 18.5851 19.9992 17.8758 22.1832 17.8758C24.2179 17.8758 25.8979 18.5945 27.2232 20.0318C28.5485 21.4691 29.2112 23.2145 29.2112 25.2678C29.2112 25.6411 29.1739 26.0611 29.0992 26.5278ZM17.9272 24.0638H26.1592C25.9539 22.9625 25.4872 22.1131 24.7592 21.5158C24.0499 20.9185 23.1819 20.6198 22.1552 20.6198C21.0352 20.6198 20.1019 20.9278 19.3552 21.5438C18.6085 22.1598 18.1325 22.9998 17.9272 24.0638Z" fill="white"/>
<path d="M55.0362 32.6038C52.9268 32.6038 51.1628 31.8945 49.7442 30.4758C48.3442 29.0385 47.6442 27.2931 47.6442 25.2398C47.6442 23.1491 48.3442 21.4038 49.7442 20.0038C51.1628 18.5851 52.9268 17.8758 55.0362 17.8758C56.3988 17.8758 57.6402 18.2025 58.7602 18.8558C59.8802 19.5091 60.7202 20.3865 61.2802 21.4878L58.6762 22.9998C58.3588 22.3278 57.8735 21.8051 57.2202 21.4318C56.5855 21.0398 55.8482 20.8438 55.0082 20.8438C53.7762 20.8438 52.7402 21.2638 51.9002 22.1038C51.0788 22.9625 50.6682 24.0078 50.6682 25.2398C50.6682 26.4718 51.0788 27.5171 51.9002 28.3758C52.7402 29.2158 53.7762 29.6358 55.0082 29.6358C55.8295 29.6358 56.5668 29.4491 57.2202 29.0758C57.8922 28.6838 58.3962 28.1518 58.7322 27.4798L61.3362 28.9638C60.7388 30.0838 59.8708 30.9705 58.7322 31.6238C57.6122 32.2771 56.3802 32.6038 55.0362 32.6038Z" fill="white"/>
<path d="M66.6579 15.5798C66.2846 15.9531 65.8366 16.1398 65.3139 16.1398C64.7913 16.1398 64.3339 15.9531 63.9419 15.5798C63.5686 15.1878 63.3819 14.7305 63.3819 14.2078C63.3819 13.6851 63.5686 13.2371 63.9419 12.8638C64.3153 12.4718 64.7726 12.2758 65.3139 12.2758C65.8553 12.2758 66.3126 12.4718 66.6859 12.8638C67.0593 13.2371 67.2459 13.6851 67.2459 14.2078C67.2459 14.7305 67.0499 15.1878 66.6579 15.5798ZM66.8259 32.2398H63.8019V18.2398H66.8259V32.2398Z" fill="white"/>
<path d="M73.6411 32.2398H70.6171V11.7998H73.6411V32.2398Z" fill="white"/>
<path d="M39.366 40.7402C38.9811 41.4069 38.0189 41.4069 37.634 40.7402L34.6029 35.4902C34.218 34.8236 34.6991 33.9902 35.4689 33.9902L41.5311 33.9902C42.3009 33.9902 42.782 34.8236 42.3971 35.4902L39.366 40.7402Z" fill="#5437DC"/>
<path fill-rule="evenodd" clip-rule="evenodd" d="M38.5 17.2402C34.9101 17.2402 32 20.1504 32 23.7402V32.2402H35V24.2402C35 22.3072 36.567 20.7402 38.5 20.7402C40.433 20.7402 42 22.3072 42 24.2402V32.2402H45V23.7402C45 20.1504 42.0899 17.2402 38.5 17.2402Z" fill="white"/>
</g>
<defs>
<clipPath id="clip0_265_1125">
<rect width="74" height="44" fill="white"/>
</clipPath>
</defs>
</svg>
