<svg width="24" height="24" viewBox="0 0 24 24" xmlns="http://www.w3.org/2000/svg">
<path fill-rule="evenodd" clip-rule="evenodd" d="M12 9C10.3431 9 9 10.3431 9 12C9 13.6569 10.3431 15 12 15C13.6569 15 15 13.6569 15 12C15 10.3431 13.6569 9 12 9ZM7 12C7 9.23858 9.23858 7 12 7C14.7614 7 17 9.23858 17 12C17 14.7614 14.7614 17 12 17C9.23858 17 7 14.7614 7 12Z"/>
<path fill-rule="evenodd" clip-rule="evenodd" d="M8.61493 2.57865C10.6368 1.85127 12.8393 1.79452 14.896 2.4168C16.9527 3.03908 18.7542 4.30729 20.0338 6.03357C21.3133 7.75984 22.0028 9.85236 22 12.0011L21 11.9998H22V12.0011V13.4998C22 14.4281 21.6312 15.3183 20.9749 15.9747C20.3185 16.6311 19.4283 16.9998 18.5 16.9998C17.5717 16.9998 16.6815 16.6311 16.0251 15.9747C15.3687 15.3183 15 14.4281 15 13.4998V11.9998C15 11.4476 15.4477 10.9998 16 10.9998C16.5523 10.9998 17 11.4476 17 11.9998V13.4998C17 13.8977 17.158 14.2792 17.4393 14.5605C17.7206 14.8418 18.1022 14.9998 18.5 14.9998C18.8978 14.9998 19.2794 14.8418 19.5607 14.5605C19.842 14.2792 20 13.8977 20 13.4998V11.9986C20.0022 10.2795 19.4506 8.60553 18.427 7.22451C17.4034 5.84349 15.9621 4.82892 14.3168 4.33109C12.6714 3.83327 10.9095 3.87867 9.29194 4.46057C7.67441 5.04247 6.28733 6.12992 5.33618 7.56183C4.38504 8.99374 3.92042 10.6939 4.01116 12.4106C4.10189 14.1272 4.74316 15.7689 5.83996 17.0926C6.93676 18.4162 8.43075 19.3514 10.1006 19.7595C11.7705 20.1677 13.5274 20.0271 15.1111 19.3586C15.6199 19.1438 16.2065 19.3821 16.4213 19.891C16.6361 20.3998 16.3977 20.9864 15.8889 21.2011C13.9093 22.0368 11.7131 22.2125 9.62577 21.7023C7.53843 21.1922 5.67095 20.0232 4.29995 18.3687C2.92895 16.7141 2.12737 14.6619 2.01395 12.5161C1.90052 10.3703 2.4813 8.2451 3.67023 6.45522C4.85916 4.66533 6.59301 3.30602 8.61493 2.57865Z"/>
</svg>
