<svg width="26" height="26" viewBox="0 0 26 26" xmlns="http://www.w3.org/2000/svg">
<path fill-rule="evenodd" clip-rule="evenodd" d="M13.6358 3.34683C14.0228 3.17118 14.4769 3.23815 14.7968 3.51806L23.4635 11.1014C23.6986 11.3071 23.8334 11.6043 23.8334 11.9167C23.8334 12.2291 23.6986 12.5263 23.4635 12.732L14.7968 20.3153C14.4769 20.5952 14.0228 20.6622 13.6358 20.4865C13.2487 20.3109 13.0001 19.9251 13.0001 19.5V16.3764C12.2843 16.5288 11.5309 16.8132 10.7612 17.1994C9.59599 17.784 8.45772 18.5692 7.44752 19.3663C6.44043 20.1609 5.58109 20.951 4.9713 21.534C4.7589 21.7371 4.58282 21.9091 4.43599 22.0526C4.36917 22.1179 4.30841 22.1773 4.25303 22.231C4.17283 22.3087 4.08941 22.3887 4.02262 22.447L4.02012 22.4492C3.99803 22.4686 3.92044 22.5365 3.82391 22.5949C3.79377 22.6131 3.73566 22.6465 3.65825 22.6774C3.60365 22.6992 3.41853 22.7709 3.17178 22.7525C2.83905 22.7276 2.44919 22.5334 2.26118 22.1127C2.12647 21.8113 2.17114 21.5457 2.18381 21.4752L2.18537 21.4665L2.1854 21.4665C3.21905 15.9692 5.83518 9.37478 13.0001 7.76997V4.33335C13.0001 3.90828 13.2487 3.52248 13.6358 3.34683ZM15.1667 6.72077V8.66668C15.1667 9.20038 14.7781 9.65457 14.2508 9.73701C9.19896 10.5269 6.57643 14.1752 5.18307 18.4218C5.47358 18.1746 5.78201 17.9205 6.1054 17.6653C7.18347 16.8147 8.44851 15.9356 9.7896 15.2628C11.1224 14.5941 12.5962 14.0956 14.0745 14.0834C14.3633 14.081 14.6412 14.1941 14.8463 14.3975C15.0514 14.6009 15.1667 14.8778 15.1667 15.1667V17.1126L21.1049 11.9167L15.1667 6.72077ZM2.59777 20.8148C2.58843 20.8229 2.59013 20.8209 2.60044 20.8124C2.59949 20.8133 2.5986 20.8141 2.59777 20.8148Z"/>
</svg>
