<svg width="24" height="25" viewBox="0 0 25 24" xmlns="http://www.w3.org/2000/svg">
<path fill-rule="evenodd" clip-rule="evenodd" d="M8.96447 3.46447C9.90215 2.52678 11.1739 2 12.5 2C13.8261 2 15.0979 2.52678 16.0355 3.46447C16.9732 4.40215 17.5 5.67392 17.5 7C17.5 8.32608 16.9732 9.59785 16.0355 10.5355C15.0979 11.4732 13.8261 12 12.5 12C11.1739 12 9.90215 11.4732 8.96447 10.5355C8.02678 9.59785 7.5 8.32608 7.5 7C7.5 5.67392 8.02678 4.40215 8.96447 3.46447ZM12.5 4C11.7044 4 10.9413 4.31607 10.3787 4.87868C9.81607 5.44129 9.5 6.20435 9.5 7C9.5 7.79565 9.81607 8.55871 10.3787 9.12132C10.9413 9.68393 11.7044 10 12.5 10C13.2956 10 14.0587 9.68393 14.6213 9.12132C15.1839 8.55871 15.5 7.79565 15.5 7C15.5 6.20435 15.1839 5.44129 14.6213 4.87868C14.0587 4.31607 13.2956 4 12.5 4Z" />
<path fill-rule="evenodd" clip-rule="evenodd" d="M15.5 19C15.5 18.4477 15.9477 18 16.5 18H22.5C23.0523 18 23.5 18.4477 23.5 19C23.5 19.5523 23.0523 20 22.5 20H16.5C15.9477 20 15.5 19.5523 15.5 19Z" />
<path fill-rule="evenodd" clip-rule="evenodd" d="M19.5 15C20.0523 15 20.5 15.4477 20.5 16V22C20.5 22.5523 20.0523 23 19.5 23C18.9477 23 18.5 22.5523 18.5 22V16C18.5 15.4477 18.9477 15 19.5 15Z" />
<path fill-rule="evenodd" clip-rule="evenodd" d="M10.5 16C9.70435 16 8.94129 16.3161 8.37868 16.8787C7.81607 17.4413 7.5 18.2044 7.5 19V21C7.5 21.5523 7.05228 22 6.5 22C5.94772 22 5.5 21.5523 5.5 21V19C5.5 17.6739 6.02678 16.4021 6.96447 15.4645C7.90215 14.5268 9.17392 14 10.5 14H14.5C15.0523 14 15.5 14.4477 15.5 15C15.5 15.5523 15.0523 16 14.5 16H10.5Z"/>
</svg>
